<?xml version="1.0" encoding="utf-8"?>
<!-- Generator: Adobe Illustrator 24.0.1, SVG Export Plug-In . SVG Version: 6.00 Build 0)  -->
<svg version="1.1" id="圖層_1" xmlns="http://www.w3.org/2000/svg" xmlns:xlink="http://www.w3.org/1999/xlink" x="0px" y="0px"
	 viewBox="0 0 1024 233" style="enable-background:new 0 0 1024 233;" xml:space="preserve">
<style type="text/css">
	.st0{fill:#836A5C;}
	.st1{fill:#C5EAC8;}
	.st2{fill:#80C797;}
	.st3{fill:#7FD49A;}
	.st4{fill:#639A6C;}
</style>
<path class="st0" d="M0,162.9L0.1,233H1024c0-20-0.1-40.1-0.1-60.1C682.6,169.6,341.3,166.2,0,162.9z"/>
<path class="st1" d="M0.1,175.9c0-34.3,0-68.6,0-102.9c1.6-0.1,3.3-0.1,5-0.3c17.7-2.2,35.5-4.3,53.1-6.8c8.6-1.2,17.4-1.5,25.9-3.8
	c0.7,0,1.3,0,1.9,0.1c0.3,0,0.7,0,1,0c2.2-0.3,4.3-0.7,6.4-0.8c10.1-0.6,19.9-3.7,30.2-1.8c15.5,2.9,31.2,5,46.8,7.4
	c41.4,6.5,82.8,13,124.2,19.5c18.1,2.8,36.1,5.6,54.2,8.3c1.1,0.7,2.2,1.6,3.4,2c18.3,5.6,36.5,11.1,54.8,16.5
	c7.5,2.2,14.9,5.9,22.5,6.1c10.1,0.3,20.3-2.1,30.5-3.4c10.9-1.1,21.9-2.1,32.8-3.2c32-3.4,64.3-5.7,95.3-15.7
	c4.2-1.3,8.5-3,13.1-2.5c9.1,1,18.2,1.8,27.3,2.7c17.4,1.7,34.8,3.3,52.1,5c0.6,0.2,1.3,0.4,1.9,0.5c34.8,3,69.2,8.4,103.7,13.9
	c14.5,2.3,28.3,2.8,42.6-1.8c18.2-5.8,36.8-10,55.3-14.8c6.6-1.6,13.2-3.1,19.8-4.8c2.5-0.6,4.9-0.8,7.3-0.3
	c10.4,2.1,20.7,4.4,31.1,6.3c11.5,2.2,22.9,5.3,34.6,6.5c0.6,0.3,1.1,0.7,1.8,0.8c15.1,3.1,30.2,6.1,45.3,9.2c0,30,0,59.9,0,89.9
	c-21.7,1.9-43.5,3.5-65.2,5.7c-27.5,2.7-54.9,4-82.6,0.2c-32.8-4.5-65.8-7.3-98.8-10.8c-29.5-3.1-59-5.9-88.4-9.6
	c-21.8-2.7-43-8.8-64.6-12.9c-9.3-1.7-18.3-5.3-27.9-4.7c-24.1,1.7-48.2,3.3-72.3,5.3c-23.5,1.9-47.2,2.8-70.5,7.6
	c-9.4,1.9-18.8,4.7-28.6,3.9c-6.6-0.5-13.3-1.1-19.9-1.5c-55.9-3.5-111.6-7.7-167.3-13.9c-7.2-0.8-14.5-2.4-21.9-1.1
	c-30.8,5.5-61.6,11-92.4,16.5c-2,0.4-3.9,0.1-5.9-0.2c-22.9-3.2-45.8-6.3-68.8-9.5C32.7,180.6,16.4,178.3,0.1,175.9z"/>
<path class="st2" d="M0.1,31.1C3.6,32,4.8,28.6,6.8,27c2.2-1.7,3.6-1.8,5.9-0.2C23,34.1,33.8,40.6,43.8,48.3
	c8.1,6.2,17.1,9,26.8,10.7c4.6,0.8,9,2.1,13.5,3.1c-8.5,2.2-17.3,2.6-25.9,3.8c-17.7,2.5-35.4,4.6-53.1,6.8C3.4,73,1.8,73,0.1,73
	C0.1,59.1,0.1,45.1,0.1,31.1z"/>
<path class="st3" d="M976.9,108c5.9-4.5,11.9-9,17.7-13.6c1.7-1.3,3.2-1,5.1-0.6c8.1,1.6,16,4.4,24.3,5.3c0,6.3,0,12.7,0,19
	c-15.1-3.1-30.2-6.1-45.3-9.2C978,108.7,977.5,108.2,976.9,108z"/>
<path class="st4" d="M680.7,102.5c20-6.7,40.1-13.3,60.1-20c2.9-1,5.6,0.3,8.3,0.7c25.2,4.4,50.4,9.4,75.7,13.3
	c12,1.8,24.2,1.7,36.4,2.5c7.6,0.5,15.3,0.8,22.9,1.3c-18.4,4.9-37.1,9-55.3,14.8c-14.3,4.6-28.1,4.1-42.6,1.8
	c-34.4-5.5-68.9-10.9-103.7-13.9C681.9,102.9,681.3,102.7,680.7,102.5z"/>
<path class="st3" d="M349,94.9c-0.5-2.1,0.7-2.8,2.4-3.5c17.9-6.7,35.8-13.4,53.6-20.2c2.6-1,3.9,0.1,5.5,1.8
	c8.5,9,17.2,17.7,25.5,26.8c5,5.5,10.5,10.1,17.4,12.9c2.3,0.9,4.4,2.3,6.6,3.4c-10.2,1.3-20.4,3.7-30.5,3.4
	c-7.5-0.2-15-3.9-22.5-6.1c-18.3-5.5-36.5-11-54.8-16.6C351.1,96.5,350.1,95.6,349,94.9z"/>
<path class="st2" d="M86.1,62.2c0.3,0,0.7,0,1,0C86.7,62.2,86.4,62.2,86.1,62.2z"/>
</svg>
