<?xml version="1.0" encoding="utf-8"?>
<!-- Generator: Adobe Illustrator 24.0.1, SVG Export Plug-In . SVG Version: 6.00 Build 0)  -->
<svg version="1.1" id="圖層_1" xmlns="http://www.w3.org/2000/svg" xmlns:xlink="http://www.w3.org/1999/xlink" x="0px" y="0px"
	 viewBox="0 0 321 368" style="enable-background:new 0 0 321 368;" xml:space="preserve">
<style type="text/css">
	.st0{fill:#71AF84;}
	.st1{fill:#A98876;}
	.st2{fill:#736E6A;}
</style>
<path class="st0" d="M222,6c2.19,0.53,5.25,1.98,11.37,4.86c4.49,2.12,6.75,3.16,8.49,4.23c3.27,2.01,6.48,4.54,10.61,8.39
	c1.67,1.56,3.11,3.51,4.22,5.51c1.27,2.29,1.18,4.27-1.97,5.44c-6.73,2.5-12.72,6.47-18.88,10.11
	c-13.49,7.97-27.33,15.21-42.67,19.01c-10.71,2.65-21.4,3.35-31.7-1.71c-2.73-1.34-3.43-0.55-3.52,2.25
	c-0.19,5.65-0.65,11.28-1,16.92c-0.76,3.32-0.62,6.64-0.09,9.96c-0.03,2.12-0.06,4.23-0.09,6.35c-0.85,0.82-1.76,1.4-2.98,0.75
	c-1.65-10.79-0.58-21.57,0.46-32.78c-15.41,9.72-31.49,5.83-47.21,3.36c-14.64-2.3-28.8-6.79-42.1-13.56
	c-2.51-1.28-5.02-2.65-7.28-4.31c-7.64-5.62-7.35-10.34,1.13-14.9c10.26-5.51,21.52-7.7,32.94-9.32
	c13.09-1.85,26.17-2.63,39.28-0.48c14.91,2.45,22.41,10.1,24.91,25.08c0.21,1.25,0.47,2.5,1.01,5.4
	c12.46-23.25,27.47-41.96,52.03-50.49C214.84,4.75,219.25,5.33,222,6z"/>
<path class="st1" d="M257.94,360.89c-1,0-2,0-3,0c-2.77-1.02-5.65-0.27-8.47-0.5c-3.58,0-7.16,0-10.74,0c-4.68,0-9.36,0-14.04,0
	c-16.81,0-33.63,0-50.44,0c-6.36,0-12.71,0-19.07,0c-6.21,0-12.42,0-18.63,0c-6.28,0-12.56-0.06-18.85,0c-5.54,0-11.08,0-16.62,0
	c-4.99,0-9.98,0-14.97,0c-5.31,0-10.62,0-15.92,0c-4.95,0-9.9,0-14.86,0c-8.29-0.5-10.78-2.57-11.72-10.89
	c-2.45-21.63-4.45-43.31-6.86-64.94c-2.53-22.63-4.89-45.27-7.5-67.89c-2.48-21.46-4.54-42.97-7.3-64.41
	c-0.76-12.68-0.7-12.75,11.68-12.75c84.05,0,168.1,0,252.15,0.01c3.29,0,6.83-0.58,8.7,3.26c0.18,10.83-1.55,21.54-2.48,32.29
	c-1.77,20.39-3.75,40.76-5.64,61.13c-2.09,22.53-4.15,45.06-6.3,67.59c-1.25,13.08-2.35,26.18-3.64,39.26
	c-0.16,1.66-0.31,3.31-0.59,4.95c-1.64,9.44-3.54,11.28-12.99,12.38C259.15,360.46,258.5,360.49,257.94,360.89z"/>
<path class="st1" d="M8.12,136.98c0-0.34,0-0.67,0-1.01c1.11-8.99,0.21-18.02,0.49-27.03c0.08-2.51-0.04-5.03,0.06-7.54
	c0.65-3.56,2.92-5.04,6.34-5.14C17,96.2,19,96.14,20.99,96.13c40.72-0.01,81.44-0.01,122.16,0c2.99,0,5.98,0.02,8.95,0.4
	c2.12-0.66,4.29-0.56,6.47-0.44c42.91,0.08,85.82,0,128.73,0.04c2.83,0,5.66-0.08,8.47,0.22c2.26,0.24,4.26,0.89,4.95,3.45
	c1.44,10.07,0.32,20.21,0.7,30.31c0.07,1.96-0.5,3.98,0.48,5.86c0,0.34,0,0.67,0,1.01c-0.97,1.59-1.53,3.65-4,3.49
	c-88.78-1.05-177.56-0.16-266.34-0.51c-6.49-0.03-12.94,0.78-19.42,0.51C9.68,140.62,9.09,138.59,8.12,136.98z"/>
<path class="st2" d="M299.15,139.09c-1.27,1.34-3,1.3-4.52,1.06c-3.39-0.53-5,1.02-5.63,4.1c-0.49-2.31-1.91-3.35-4.28-3.24
	c-1.66,0.08-3.33-0.01-4.99-0.01c-83.09,0-166.19,0-249.28,0c-8.53,0-8.52,0-8.31,8.27c0.03,1.33-0.08,2.66-0.13,3.98
	c-1.55-2.68-0.98-5.74-1.31-8.6c-0.41-3.47-1.68-4.94-5.24-4.5c-1.56,0.2-3.3,0.28-4.6-1.06c51.04-0.03,102.08-0.08,153.12-0.09
	C209.04,139.01,254.1,139.06,299.15,139.09z"/>
<path class="st0" d="M156.87,91.98c-1.31-3.33-1.44-6.66,0.09-9.96C156.92,85.34,156.9,88.66,156.87,91.98z"/>
</svg>
