<?xml version="1.0" encoding="utf-8"?>
<!-- Generator: Adobe Illustrator 24.0.1, SVG Export Plug-In . SVG Version: 6.00 Build 0)  -->
<svg version="1.1" id="圖層_1" xmlns="http://www.w3.org/2000/svg" xmlns:xlink="http://www.w3.org/1999/xlink" x="0px" y="0px"
	 viewBox="0 0 113.39 113.39" style="enable-background:new 0 0 113.39 113.39;" xml:space="preserve">
<style type="text/css">
	.st0{fill:#F9F282;}
</style>
<g>
	<path class="st0" d="M31.05,56.41c0.18-14.18,12.84-26.57,27.04-26.49C72.5,30,85.14,42.87,84.87,57.2
		C84.6,71.42,71.97,83.79,57.81,83.7C43.39,83.61,30.86,70.82,31.05,56.41z"/>
	<path class="st0" d="M90.08,59.87c0.03-0.33,0.08-0.82,0.13-1.31c0.8-7.35,0.8-7.35,7.8-4.88c2.78,0.98,5.56,1.98,8.35,2.92
		c1.17,0.39,2.26,0.84,1.92,2.33c-0.23,1.01-0.92,1.61-2.06,1.81c-4.21,0.73-8.39,1.65-12.61,2.34
		C90.74,63.54,90.14,62.92,90.08,59.87z"/>
	<path class="st0" d="M57.94,89.42c6.27,0.01,6.34,0.09,4.68,5.98c-0.8,2.84-1.68,5.66-2.45,8.51c-0.38,1.42-0.41,3.3-2.25,3.38
		c-2.24,0.1-2.16-2.21-2.65-3.61c-0.93-2.62-1.49-5.37-2.22-8.06C51.35,89.41,51.34,89.41,57.94,89.42z"/>
	<path class="st0" d="M100.49,81.79c-5.34-1.19-9.51-2.15-13.68-3.05c-2.07-0.45-2.76-1.58-1.93-3.55c0.19-0.45,0.42-0.89,0.63-1.33
		c3.55-7.39,3.72-7.43,9.6-1.98c2.06,1.91,4.1,3.85,6.08,5.84c0.76,0.77,1.9,1.52,1.14,2.92C101.64,81.9,100.46,81.79,100.49,81.79z
		"/>
	<path class="st0" d="M84.5,13.89c2.54,0.2,2.71,1.64,2.31,2.91c-1.36,4.37-2.84,8.71-4.44,13c-0.57,1.55-1.61,2.14-3.51,1.24
		c-7.57-3.58-7.95-5.36-1.84-10.78C79.59,18,82.23,15.82,84.5,13.89z"/>
	<path class="st0" d="M101.8,32.46c-0.12,0.03,1.13-0.06,1.76,1.18c0.7,1.35-0.48,2.14-1.31,2.89c-2.84,2.54-5.81,4.94-8.59,7.55
		c-2.75,2.58-4.49,2.09-5.74-1.37c-0.55-1.54-1.46-2.94-2.03-4.48c-0.64-1.73,0.06-2.9,1.9-3.29c1.62-0.34,3.24-0.68,4.87-0.97
		C95.26,33.52,97.87,33.11,101.8,32.46z"/>
	<path class="st0" d="M83.23,98.22c-0.01,0.87,0.15,2-1.04,2.41c-1.03,0.36-1.89-0.11-2.63-0.92c-3.01-3.3-6.09-6.54-9.1-9.84
		c-1.35-1.48-0.73-2.71,0.7-3.7c0.54-0.37,1.16-0.62,1.73-0.95c6.54-3.65,6.55-3.66,8.3,3.72c0.61,2.56,1.18,5.13,1.76,7.7
		C83.06,97.13,83.12,97.63,83.23,98.22z"/>
	<path class="st0" d="M29.95,37.63c-1.28,2.32-2.62,5.14-4.36,7.68c-0.86,1.25-2.16,0.09-2.99-0.61c-3.14-2.66-6.2-5.41-9.29-8.14
		c-1.02-0.9-1.99-1.85-1.16-3.36c0.73-1.31,1.79-0.93,3-0.67c4.01,0.86,8.05,1.59,12.09,2.28C28.68,35.05,29.81,35.41,29.95,37.63z"
		/>
	<path class="st0" d="M35.33,31.42c-1.46-0.2-2.05-0.77-2.4-1.87c-1.37-4.23-2.79-8.45-4.32-12.62c-0.4-1.09-0.48-1.99,0.42-2.65
		c1.07-0.79,2.16-0.47,3.15,0.39c2.99,2.63,5.95,5.28,9.01,7.82c2.78,2.32,2.27,3.99-0.71,5.59C38.6,29.09,36.89,30.4,35.33,31.42z"
		/>
	<path class="st0" d="M24.96,58.09c1.23,4.5-0.64,5.46-4.33,4.68c-3.72-0.79-7.47-1.4-11.18-2.2c-1.12-0.24-2.34-0.74-2.33-2.18
		c0.01-1.19,1.1-1.64,2-1.97c4.02-1.49,8.05-2.97,12.12-4.32c2.52-0.84,3.82,0.19,3.73,2.9C24.92,56.14,24.96,57.3,24.96,58.09z"/>
	<path class="st0" d="M57.63,24.71c-6.33,0-6.35-0.04-4.78-6.03c0.75-2.85,1.39-5.74,2.21-8.57c0.38-1.33,0.41-3.2,2.39-3.24
		c1.95-0.03,2.14,1.63,2.5,3.1c0.7,2.86,1.5,5.71,2.28,8.55C63.89,24.59,63.81,24.71,57.63,24.71z"/>
	<path class="st0" d="M25.38,67.56c3.44,1.68,4.28,5.06,5.44,7.96c0.97,2.4-1.24,2.88-3.16,3.27c-3.72,0.76-7.43,1.61-11.11,2.55
		c-1.24,0.32-2.27,0.43-3.11-0.69c-1.04-1.38,0.12-2.13,0.91-2.9c2.97-2.9,5.97-5.78,8.98-8.64C23.91,68.56,24.61,68.14,25.38,67.56
		z"/>
	<path class="st0" d="M34.31,100.76c-1.77-0.43-2.48-1.39-2.14-2.92c0.95-4.32,1.94-8.62,2.94-12.92c0.48-2.07,1.84-2.58,3.74-1.89
		c0.61,0.22,1.16,0.61,1.75,0.9c6.82,3.43,6.86,3.6,1.67,9.02c-1.94,2.02-3.88,4.03-5.86,6.02
		C35.74,99.63,34.96,100.21,34.31,100.76z"/>
</g>
</svg>
